/* XPM */
static char *coccinella[] = {
/* columns rows colors chars-per-pixel */
"32 32 181 2",
"   c black",
".  c #010000",
"X  c #010101",
"o  c #020000",
"O  c #030000",
"+  c #020202",
"@  c gray1",
"#  c #040101",
"$  c #050101",
"%  c #060101",
"&  c #070101",
"*  c #040303",
"=  c #070202",
"-  c #070303",
";  c #040404",
":  c #060606",
">  c #070707",
",  c #080101",
"<  c #0A0101",
"1  c #0B0202",
"2  c #0C0202",
"3  c #0E0202",
"4  c gray3",
"5  c gray4",
"6  c #110202",
"7  c #110303",
"8  c #120303",
"9  c #130303",
"0  c #160303",
"q  c #170303",
"w  c #180303",
"e  c #190404",
"r  c #1A0404",
"t  c #1B0404",
"y  c #1D0404",
"u  c #1E0404",
"i  c #111111",
"p  c #210505",
"a  c #220505",
"s  c #230505",
"d  c #240505",
"f  c #250505",
"g  c #260505",
"h  c #270606",
"j  c #280606",
"k  c #290606",
"l  c #2D0606",
"z  c #310707",
"x  c #320707",
"c  c #330707",
"v  c #350707",
"b  c #350808",
"n  c #360808",
"m  c #370808",
"M  c #3A0808",
"N  c #3C0909",
"B  c #3E0909",
"V  c #232323",
"C  c gray19",
"Z  c #373737",
"A  c #440A0A",
"S  c #470A0A",
"D  c #4E0B0B",
"F  c #4F0B0B",
"G  c #500C0C",
"H  c #510C0C",
"J  c #520C0C",
"K  c #540C0C",
"L  c #580D0D",
"P  c #5D0D0D",
"I  c #5E0E0E",
"U  c #600E0E",
"Y  c #620E0E",
"T  c #630E0E",
"R  c #640E0E",
"E  c #650F0F",
"W  c #690F0F",
"Q  c #6A0F0F",
"!  c #6C1010",
"~  c #6E1010",
"^  c #6F1010",
"/  c #701010",
"(  c #711010",
")  c #721010",
"_  c #751111",
"`  c #781111",
"'  c #7B1212",
"]  c #7C1212",
"[  c #7E1212",
"{  c gray25",
"}  c #686868",
"|  c gray49",
" . c #7E7E7E",
".. c #801212",
"X. c #821313",
"o. c #831313",
"O. c #841313",
"+. c #861313",
"@. c #871414",
"#. c #881414",
"$. c #8A1414",
"%. c #8D1414",
"&. c #8E1414",
"*. c #8E1515",
"=. c #8F1515",
"-. c #921515",
";. c #941515",
":. c #961616",
">. c #971616",
",. c #981616",
"<. c #991616",
"1. c #9A1616",
"2. c #9D1717",
"3. c #9F1717",
"4. c #A01717",
"5. c #A11717",
"6. c #A31818",
"7. c #A41818",
"8. c #A51818",
"9. c #A61818",
"0. c #A81818",
"q. c #AA1919",
"w. c #AC1919",
"e. c #AE1919",
"r. c #AF1919",
"t. c #B01919",
"y. c #B11A1A",
"u. c #B21A1A",
"i. c #B41A1A",
"p. c #B51A1A",
"a. c #B61A1A",
"s. c #B71A1A",
"d. c #B81B1B",
"f. c #B91B1B",
"g. c #BB1B1B",
"h. c #BD1B1B",
"j. c #BE1C1C",
"k. c #BF1C1C",
"l. c #C21C1C",
"z. c #C31C1C",
"x. c #C41C1C",
"c. c #C51D1D",
"v. c #C61D1D",
"b. c #C71D1D",
"n. c #C81D1D",
"m. c #CA1D1D",
"M. c #CB1D1D",
"N. c #CC1E1E",
"B. c #CD1E1E",
"V. c #CE1E1E",
"C. c #D01E1E",
"Z. c #D11E1E",
"A. c #D21E1E",
"S. c #D31F1F",
"D. c #D41F1F",
"F. c #D61F1F",
"G. c #D71F1F",
"H. c #D81F1F",
"J. c #DA2020",
"K. c #DC2020",
"L. c #DD2020",
"P. c #DE2020",
"I. c #DF2020",
"U. c #E02020",
"Y. c #E02121",
"T. c #E12121",
"R. c #E22121",
"E. c #E32121",
"W. c #979797",
"Q. c #A9A9A9",
"!. c #AEAEAE",
"~. c gray69",
"^. c gray",
"/. c gray76",
"(. c #E4E4E4",
"). c #E6E6E6",
"_. c #F6F6F6",
"`. c gray97",
"'. c #FEFEFE",
"]. c gray100",
"[. c None",
/* pixels */
"[.[.[.[.[.[.[.[.[.[.[.[.[.[.[.[.[.[.[.[.[.[.[.[.[.[.[.[.[.[.[.[.",
"[.[.[.[.[.[.[.[.[.[.[.[.[.[.[.[.[.].[.[.[.[.[.[.[.[.[.[.[.[.[.[.",
"[.[.[.[.[.[.[.[.[.[.[.[.[.].Q.V _.].~.  X [.[.[.[.[.[.[.[.[.[.[.",
"[.[.[.[.[.[.[.[.[.[.X   !.].`.} ].].(.        [.[.[.[.[.[.[.[.[.",
"[.[.[.[.[.[.[.[.[.      W.].).{ '.]./.            [.[.[.[.[.[.[.",
"[.[.[.[.[.[.[.+         i | Z X  .^.C               [.[.[.[.[.[.",
"[.[.[.[.[.[.+ 2                               m #     [.[.[.[.[.",
"[.[.[.[.[.; d f.8                         6 o.T.<.%     [.[.[.[.",
"[.[.[.[.[.0 b.E.s.b .               # c ..S.E.E.E.*..     [.[.[.",
"[.[.[.[.# 7.E.E.E.T.l.*.~ U I Q o.8.Z.R.E.E.E.E.E.E.L     [.[.[.",
"[.[.[.[.F E.E.E.E.E.E.E.E.z.d.E.E.E.E.U.+.L ,.R.E.E.Z.6     [.[.",
"[.[.[.= g.e.' v.E.E.E.E.E.#.c.E.E.E.E.^     o -.E.E.E./     [.[.",
"[.[.[.n u.$   t G.E.E.E.E.J J.E.E.E.L.<       j E.E.E.z.#   [.[.",
"[.[.[._ ~       0.E.E.E.E.v P.E.E.E.C.        8 E.E.E.R.h     [.",
"[.[.[.6.O.    o h.E.E.E.R.u I.E.E.E.R.p       A E.E.E.E.K     [.",
"[.[.[.j.H.B 3 W R.x.M.E.C.e Y.R.2.] Z.7.1   q h.E.E.E.E.^     [.",
"[.[.  b.E.R.J.E.3.$ 2 d.n.6 P.@..   k P.N.0.D.E.E.E.E.E.`     [.",
"[.[.[.h.E.E.E.E.H     / x.& K.l       w.E.E.E.E.E.E.E.E.~     [.",
"[.[.[.5.E.E.E.E.~     %.c.. V.k       0.E.P.;.:.I.E.E.E.J     [.",
"[.[.[.) E.E.E.E.F.R ( P.S.. t.`     y J.E.P     R E.E.R.s     [.",
"[.[.[.x R.E.S.E &.R.E.E.T.O =.Y.O.T x.E.N.%     , A.E.k.O   [.[.",
"[.[.[.- p.E.J   . q.E.E.E.r Y E.E.E.E.E.q.        y.E.W     [.[.",
"[.[.[.[.S T.w     / E.E.E.M z E.E.E.E.E.d.      . k.B.3     [.[.",
"[.[.[.[.* 1.f     [ E.E.E.P , A.E.E.E.E.P.a     h U.D     [.[.[.",
"[.[.[.[.[.7 T o 0 M.E.E.E.$.  >.E.E.E.E.E.r.d g i.o.    X [.[.[.",
"[.[.[.[.[.5 y ,.C.E.E.E.E.d.. G E.E.E.E.E.E.E.E.%.O   X [.[.[.[.",
"[.[.[.[.[.[.> 9 4.R.E.E.E.I.9 2 S.E.E.E.E.E.K.W o     [.[.[.[.[.",
"[.[.[.[.[.[.[.4 o F k.E.E.E.F   #.E.E.E.Y.2.g     X [.[.[.[.[.[.",
"[.[.[.[.[.[.[.[.[.+ O N X.a.o.  g m.9.! p       + [.[.[.[.[.[.[.",
"[.[.[.[.[.[.[.[.[.[.: X                     X [.[.[.[.[.[.[.[.[.",
"[.[.[.[.[.[.[.[.[.[.[.[.[.@ +       X X @ [.[.[.[.[.[.[.[.[.[.[.",
"[.[.[.[.[.[.[.[.[.[.[.[.[.[.[.[.[.[.[.[.[.[.[.[.[.[.[.[.[.[.[.[."
};
